<svg viewBox="0 0 61.4223 81.5401" x="0" y="0" fill="none" xmlns="http://www.w3.org/2000/svg"><g id="Group_6" xmlns="http://www.w3.org/2000/svg">
<g id="Group_7">
<path id="Vector_18" d="M20.7762,64.59c-4.582,4.37 -12.012,4.37 -16.595,0c-4.582,-4.37 -4.582,-11.45 0,-15.82z" fill="#BABDBF"/>
<path id="Vector_19" d="M14.8232,67.64c-3.727,0.72 -7.751,-0.3 -10.642,-3.05c-4.582,-4.37 -4.582,-11.45 0,-15.82l2.68,2.55c-2.432,4.25 -1.763,9.68 2.006,13.27c1.692,1.61 3.772,2.63 5.956,3.05z" fill="#97999B"/>
<path id="Vector_20" d="M43.2312,59.94c3.874,1.78 6.548,5.55 6.548,9.92v3.89c2.254,0 4.083,1.75 4.083,3.9c0,1.07 -0.457,2.05 -1.196,2.75c-0.74,0.7 -1.76,1.14 -2.887,1.14h-9.546h-5.032h-8.979h-5.032h-9.546c-2.254,0 -4.083,-1.74 -4.083,-3.89c0,-1.08 0.457,-2.05 1.196,-2.75c0.74,-0.71 1.76,-1.15 2.887,-1.15v-3.89c0,-4.37 2.675,-8.14 6.548,-9.92" fill="#97999B"/>
<path id="Vector_21" d="M44.4082,77.57c0.043,2.18 -1.886,3.97 -4.175,3.97h-5.032c-2.479,0 -4.489,-1.92 -4.489,-4.28c0,2.36 -2.01,4.28 -4.49,4.28h-5.032c-2.289,0 -4.218,-1.79 -4.175,-3.97c0.043,-2.11 1.854,-3.82 4.082,-3.82l-1.932,-5.18c-1.515,-4.06 -1.51,-8.49 0.015,-12.54l1.425,-3.8h20.213l1.425,3.8c1.525,4.05 1.53,8.48 0.016,12.54l-1.933,5.18c2.229,0 4.039,1.71 4.082,3.82z" fill="#CCCFD1"/>
<path id="Vector_22" d="M26.2222,81.54h-5.032c-2.289,0 -4.218,-1.79 -4.175,-3.97c0.043,-2.11 1.854,-3.81 4.082,-3.81l-1.933,-5.19c-1.514,-4.05 -1.509,-8.49 0.016,-12.54l1.425,-3.8h5.037l-1.425,3.8c-1.525,4.05 -1.53,8.49 -0.016,12.54l1.933,5.19c-2.229,0 -4.039,1.7 -4.082,3.81c-0.043,2.18 1.883,3.97 4.17,3.97z" fill="#BABDBF"/>
<path id="Vector_23" d="M40.8182,44.96v7.27c-4.97,2.14 -10.499,2.63 -15.722,1.46c-1.53,-0.35 -3.035,-0.83 -4.491,-1.46v-7.27z" fill="#3680AB"/>
<path id="Vector_24" d="M25.0962,44.96v8.73c-1.53,-0.35 -3.035,-0.83 -4.491,-1.46v-7.27z" fill="#2F607C"/>
<path id="Vector_25" d="M30.7112,48.97c4.414,0 7.993,-3.41 7.993,-7.62c0,-4.2 -3.579,-7.62 -7.993,-7.62c-4.414,0 -7.992,3.42 -7.992,7.62c0,4.21 3.578,7.62 7.992,7.62z" fill="#EF4A4A"/>
<path id="Vector_26" d="M39.3332,4.8h-17.243c-7.312,0 -13.239,5.65 -13.239,12.62v14.91c0,6.97 5.927,12.62 13.239,12.62h17.243c7.312,0 13.239,-5.65 13.239,-12.62v-14.91c0,-6.97 -5.927,-12.62 -13.239,-12.62z" fill="#E6E8EA"/>
<path id="Vector_27" d="M36.2492,44.95h-14.159c-7.312,0 -13.239,-5.65 -13.239,-12.62v-14.91c0,-6.97 5.927,-12.62 13.239,-12.62h14.159c-7.312,0 -13.238,5.65 -13.238,12.62v14.91c-0.001,6.97 5.926,12.62 13.238,12.62z" fill="#97999B"/>
<path id="Vector_28" d="M30.7112,27.28h-7.263c-3.953,0 -7.158,3.05 -7.158,6.82v7.25c0,3.8 3.229,6.88 7.211,6.88c3.982,0 7.21,-3.08 7.21,-6.88c0,3.8 3.229,6.88 7.211,6.88c3.982,0 7.21,-3.08 7.21,-6.88v-7.25c0,-3.77 -3.205,-6.82 -7.158,-6.82z" fill="#E6E8EA"/>
<path id="Vector_29" d="M27.2402,47.23c-1.091,0.63 -2.371,1 -3.739,1c-3.982,0 -7.211,-3.08 -7.211,-6.88v-7.25c0,-3.77 3.206,-6.82 7.159,-6.82h7.477c-3.953,0 -7.157,3.05 -7.157,6.82v7.25c0,2.5 1.389,4.68 3.471,5.88z" fill="#BABDBF"/>
<path id="Vector_30" d="M34.2592,24.66h-7.096c-2.022,0 -3.662,1.56 -3.662,3.49c0,1.93 1.64,3.49 3.662,3.49h1.145v2.08c0,1.26 1.076,2.29 2.403,2.29c1.328,0 2.404,-1.03 2.404,-2.29v-2.08h1.144c2.023,0 3.663,-1.56 3.663,-3.49c0,-1.93 -1.64,-3.49 -3.663,-3.49z" fill="#EF4A4A"/>
<path id="Vector_31" d="M31.8232,35.75c-0.332,0.16 -0.709,0.26 -1.112,0.26c-1.328,0 -2.404,-1.03 -2.404,-2.3v-2.07h-1.144c-1.012,0 -1.928,-0.39 -2.59,-1.02c-0.663,-0.63 -1.072,-1.51 -1.072,-2.47c0,-1.93 1.638,-3.49 3.662,-3.49h3.369c-2.023,0 -3.663,1.56 -3.663,3.49c0,0.96 0.409,1.84 1.072,2.47c0.664,0.63 1.58,1.02 2.591,1.02v2.07c0,0.89 0.524,1.65 1.291,2.04z" fill="#DB3939"/>
<path id="Vector_32" d="M10.1862,1.45l-8.661,8.26c-2.033,1.94 -2.033,5.08 0,7.02l4.114,3.92c2.704,2.58 7.305,1.59 8.587,-1.84l4.547,-12.18c0.674,-1.81 0.198,-3.82 -1.224,-5.18c-2.033,-1.93 -5.33,-1.93 -7.363,0z" fill="#CCCFD1"/>
<path id="Vector_33" d="M8.1252,9.57c-2.034,1.94 -2.034,5.08 0,7.02l4.113,3.92c0.153,0.15 0.313,0.28 0.478,0.4c-1.962,1.6 -5.05,1.67 -7.078,-0.26l-4.113,-3.92c-2.034,-1.94 -2.034,-5.08 0,-7.02l8.66,-8.26c1.017,-0.96 2.351,-1.45 3.683,-1.45c1.134,0 2.268,0.35 3.207,1.06c-0.099,0.08 -0.196,0.16 -0.291,0.25z" fill="#BABDBF"/>
<path id="Vector_34" d="M51.2372,1.45l8.66,8.26c2.034,1.94 2.034,5.08 0,7.02l-4.113,3.92c-2.705,2.58 -7.305,1.59 -8.588,-1.84l-4.547,-12.18c-0.674,-1.81 -0.197,-3.82 1.224,-5.18c2.034,-1.93 5.33,-1.93 7.364,0z" fill="#CCCFD1"/>
<path id="Vector_35" d="M54.7522,21.42c-2.715,1.55 -6.425,0.42 -7.556,-2.61l-4.547,-12.18c-0.674,-1.8 -0.197,-3.82 1.224,-5.17c1.015,-0.97 2.349,-1.46 3.681,-1.46c0.919,0 1.836,0.23 2.652,0.69c-0.368,0.21 -0.714,0.46 -1.029,0.77c-1.422,1.35 -1.898,3.37 -1.225,5.17l4.548,12.18c0.435,1.17 1.254,2.05 2.252,2.61z" fill="#BABDBF"/>
</g>
<g id="Group_8">
<path id="Vector_36" d="M20.2962,24.68c1.15,0 2.082,-1.42 2.082,-3.18c0,-1.76 -0.932,-3.18 -2.082,-3.18c-1.15,0 -2.081,1.42 -2.081,3.18c0,1.76 0.931,3.18 2.081,3.18z" fill="#454B56"/>
<path id="Vector_37" d="M41.1272,18.32c-1.148,0 -2.082,1.42 -2.082,3.18c0,1.76 0.934,3.18 2.082,3.18c1.147,0 2.081,-1.42 2.081,-3.18c0,-1.76 -0.934,-3.18 -2.081,-3.18z" fill="#454B56"/>
</g>
</g></svg>