<svg width="113" height="40" viewBox="0 0 113 40" fill="none" xmlns="http://www.w3.org/2000/svg">
<g clip-path="url(#clip0_16906_42)">
<g clip-path="url(#clip1_16906_42)">
<path d="M83.4219 6.8694C82.8391 7.45116 82.8391 8.39092 83.4219 8.97267L92.8592 18.3926C93.1506 18.6835 93.5317 18.829 93.9127 18.829C94.2938 18.829 94.6749 18.6835 94.9663 18.3926C95.5491 17.8109 95.5491 16.8711 94.9663 16.2894L85.5291 6.8694C84.9462 6.28765 84.0048 6.28765 83.4219 6.8694Z" fill="#00CDA6"/>
<path d="M109.772 2.30486C106.701 -0.760547 101.702 -0.760547 98.6313 2.30486L97.2752 3.65856C96.6923 4.24031 96.6923 5.18007 97.2752 5.76183C97.858 6.34358 98.7995 6.34358 99.3823 5.76183L100.738 4.40813C102.655 2.49505 105.76 2.49505 107.676 4.40813C109.593 6.32121 109.593 9.42018 107.676 11.3333L97.0958 21.8944C96.3561 22.6327 95.3698 23.0355 94.3274 23.0355C93.2851 23.0355 92.2988 22.6327 91.559 21.8944L80.9786 11.3333C79.062 9.42018 79.062 6.32121 80.9786 4.40813C82.8952 2.49505 85.9998 2.49505 87.9164 4.40813L89.2726 5.76183L97.8019 14.2756C98.0934 14.5665 98.4744 14.7119 98.8555 14.7119C99.2366 14.7119 99.6177 14.5665 99.9091 14.2756L105.222 8.97267C105.805 8.39092 105.805 7.45116 105.222 6.8694C104.639 6.28765 103.697 6.28765 103.115 6.8694L98.8555 11.1207L91.3797 3.65856L90.0011 2.30486C86.9301 -0.760547 81.9313 -0.760547 78.8602 2.30486C75.7892 5.37026 75.7892 10.3599 78.8602 13.4253L89.4407 23.9864C90.7857 25.329 92.5453 26.0002 94.3162 26.0002C96.0759 26.0002 97.8468 25.329 99.1918 23.9864L109.772 13.4253C112.854 10.3599 112.854 5.37026 109.772 2.30486Z" fill="#00CDA6"/>
<path d="M9.2579 25.3849C7.22923 25.3849 5.76097 24.2997 5.02123 22.23L0 8.50279H4.8419L9.2579 21.0329L9.29152 21.1224L13.7187 8.50279H18.5606L13.4721 22.2188C12.6764 24.3221 11.2641 25.3849 9.2579 25.3849Z" fill="white"/>
<path d="M27.9082 25.3513C25.4088 25.3513 23.1335 24.4899 21.4971 22.9236C19.8384 21.335 18.9305 19.0751 18.9305 16.5579C18.9305 14.2197 19.7711 12.0493 21.2954 10.4494C22.8645 8.80486 25.0501 7.89866 27.4711 7.89866C29.9369 7.89866 32.044 8.76011 33.5459 10.3823C34.9357 11.8926 35.709 13.9623 35.709 16.2222V17.52H23.3017L23.3241 17.6431C23.6715 19.9477 25.4648 21.4357 27.8746 21.4357C29.7127 21.4357 31.2258 20.5742 32.0328 19.0527L35.5073 20.798C34.039 23.7291 31.3379 25.3513 27.9082 25.3513ZM27.4374 11.8479C25.4424 11.8479 23.9069 13.0673 23.5258 14.958L23.5034 15.0923H31.2034L31.1922 14.9692C30.9568 13.1233 29.4213 11.8479 27.4374 11.8479Z" fill="white"/>
<path d="M43.1624 0.850468H38.6119V24.915H43.1624V0.850468Z" fill="white"/>
<path d="M51.9496 0.850468H47.3991V24.915H51.9496V0.850468Z" fill="white"/>
<path d="M63.5724 25.3513C58.5736 25.3513 54.6619 21.5364 54.6619 16.6586C54.6619 14.3539 55.5698 12.1835 57.2286 10.5501C58.8986 8.90554 61.1514 7.99935 63.5612 7.99935C65.9933 7.99935 68.2574 8.90554 69.9386 10.5613C71.5862 12.1835 72.5053 14.3539 72.5053 16.6586C72.5053 18.9856 71.5862 21.156 69.9274 22.7894C68.2574 24.4339 66.0045 25.3513 63.5724 25.3513ZM63.5724 12.2842C61.129 12.2842 59.2236 14.2197 59.2236 16.6921C59.2236 19.1646 61.1402 21.1 63.5724 21.1C66.027 21.1 67.9548 19.1646 67.9548 16.6921C67.9548 14.2197 66.027 12.2842 63.5724 12.2842Z" fill="white"/>
</g>
<path d="M4.40421 36.0126H5.79162C6.03778 36.0126 6.23917 35.9566 6.39582 35.8336C6.55246 35.7105 6.63078 35.5315 6.63078 35.2629C6.63078 35.1175 6.6084 34.9944 6.55246 34.9049C6.49652 34.8154 6.42938 34.7371 6.33987 34.6811C6.25036 34.6252 6.14966 34.5916 6.03778 34.5804C5.92589 34.558 5.814 34.5469 5.69092 34.5469H4.40421V36.0126ZM3.02798 33.4839H5.97064C6.27274 33.4839 6.54127 33.5063 6.78743 33.5622C7.03358 33.6182 7.24617 33.7077 7.414 33.8196C7.59302 33.9315 7.72729 34.0993 7.8168 34.2895C7.9175 34.4909 7.96225 34.7371 7.96225 35.028C7.96225 35.3413 7.88393 35.6098 7.73847 35.8112C7.59302 36.0238 7.39162 36.1916 7.1119 36.3259C7.49232 36.4378 7.78323 36.628 7.97344 36.9077C8.16365 37.1874 8.26435 37.5119 8.26435 37.9035C8.26435 38.2168 8.2084 38.4965 8.08533 38.7315C7.96225 38.9552 7.79442 39.1455 7.58183 39.2909C7.38043 39.4364 7.14547 39.5483 6.87694 39.6154C6.61959 39.6825 6.33987 39.7161 6.06015 39.7161H3.02798V33.4839ZM4.40421 38.6643H5.86994C6.00421 38.6643 6.12729 38.6531 6.25036 38.6308C6.37344 38.5972 6.48533 38.5524 6.57484 38.4965C6.66435 38.4294 6.74267 38.351 6.79861 38.2392C6.85456 38.1385 6.88812 38.0042 6.88812 37.8364C6.88812 37.5119 6.79861 37.2881 6.61959 37.1538C6.44057 37.0084 6.19442 36.9413 5.90351 36.9413H4.40421V38.6643ZM11.6434 37.2993L9.34966 33.4839H10.8937L12.3595 35.9566L13.814 33.4839H15.3357L13.0196 37.3329V39.7273H11.6434V37.2993ZM20.6168 33.4839H21.993V39.7385H20.6168V33.4839ZM26.1217 38.586H27.3525C27.5539 38.586 27.7441 38.5524 27.9343 38.4853C28.1245 38.4182 28.2923 38.3175 28.4378 38.172C28.5832 38.0154 28.6951 37.8252 28.7846 37.5902C28.8741 37.3552 28.9189 37.0643 28.9189 36.7175C28.9189 36.4042 28.8853 36.1245 28.8182 35.8671C28.7623 35.6098 28.6616 35.386 28.5161 35.207C28.3706 35.028 28.1916 34.8937 27.9567 34.793C27.7329 34.6923 27.442 34.6476 27.1063 34.6476H26.1217V38.586ZM24.7455 33.4839H27.442C27.8448 33.4839 28.214 33.551 28.5609 33.6741C28.9077 33.7972 29.2098 33.9986 29.4671 34.2559C29.7245 34.5133 29.9259 34.8378 30.0602 35.2182C30.2056 35.5986 30.2839 36.0573 30.2839 36.572C30.2839 37.0308 30.228 37.4448 30.1049 37.8364C29.993 38.2168 29.814 38.5524 29.5678 38.8322C29.3329 39.1119 29.042 39.3357 28.6839 39.4923C28.3371 39.649 27.9231 39.7273 27.442 39.7273H24.7455V33.4839ZM32.4769 33.4839H37.1539V34.6364H33.8532V35.979H36.8853V37.042H33.8532V38.5748H37.221V39.7273H32.4769V33.4839ZM41.3609 36.4601L39.3469 33.4839H40.9357L42.1664 35.4755L43.4308 33.4839H44.9413L42.9385 36.4713L45.1203 39.7385H43.4867L42.1217 37.579L40.7343 39.7385H39.1902L41.3609 36.4601ZM48.8574 36.4601L46.8434 33.4839H48.4322L49.663 35.4755L50.9273 33.4839H52.4378L50.435 36.4713L52.6168 39.7385H50.9832L49.6182 37.579L48.2308 39.7385H46.6867L48.8574 36.4601Z" fill="white"/>
</g>
<defs>
<clipPath id="clip0_16906_42">
<rect width="113" height="40" fill="white"/>
</clipPath>
<clipPath id="clip1_16906_42">
<rect width="112.081" height="26" fill="white"/>
</clipPath>
</defs>
</svg>
