<?xml version="1.0" encoding="utf-8"?>
<!-- Generator: Adobe Illustrator 15.1.0, SVG Export Plug-In . SVG Version: 6.00 Build 0)  -->
<!DOCTYPE svg PUBLIC "-//W3C//DTD SVG 1.1//EN" "http://www.w3.org/Graphics/SVG/1.1/DTD/svg11.dtd">
  <svg version="1.1" id="Layer_1" xmlns="http://www.w3.org/2000/svg" xmlns:xlink="http://www.w3.org/1999/xlink"
      viewBox="0 0 154.785 32.492" xml:space="preserve">
<g>
	<polygon fill="#E8B049" points="11.628,5.402 8.005,14.61 7.584,15.937 7.159,14.597 3.667,5.402 0,5.402 5.783,19.73 9.261,19.73 
		15.197,5.402 11.628,5.402 	"/>
	<path fill="#E8B049" d="M22.122,5.131c-4.251,0-7.336,3.159-7.336,7.51c0,4.525,2.849,7.337,7.436,7.337
		c2.849,0,4.998-1.154,6.386-3.43l0.14-0.228l-2.948-1.635l-0.126,0.221c-0.823,1.447-1.871,2.065-3.501,2.065
		c-2.244,0-3.629-1.181-3.931-3.334H28.99v-1.293C28.99,7.962,26.294,5.131,22.122,5.131 M22.098,8.112
		c2.528,0,3.269,1.646,3.422,3.137h-7.236C18.695,9.223,20.04,8.112,22.098,8.112"/>
	<path fill="#E8B049" d="M36.064,0l-3.302,1.986v3.417H29.58v2.98h3.158v6.699c0,3.339,1.414,4.896,4.451,4.896
		c1.003,0,1.814-0.176,2.628-0.568l0.146-0.07v-2.967l-0.357,0.151c-0.6,0.254-1.011,0.375-1.725,0.375
		c-1.29,0-1.815-0.626-1.815-2.161V8.383h3.898v-2.98h-3.898V0L36.064,0z"/>
	<path fill="#E8B049" d="M72.475,17.121c-0.745,0-1.124-0.244-1.124-1.57v-5.229c0-3.299-2.125-5.191-5.832-5.191
		c-3.279,0-5.729,1.59-6.899,4.478l-0.104,0.257l3.19,1.023l0.083-0.234c0.642-1.803,1.789-2.642,3.607-2.642
		c1.663,0,2.58,0.592,2.58,1.667c0,0.831-0.696,1.217-3.102,1.722c-2.377,0.495-3.69,0.845-4.721,1.49
		c-1.277,0.802-1.872,1.874-1.872,3.375c0,2.323,1.719,3.711,4.598,3.711c2.221,0,4.125-1.064,5.178-2.834
		c0.243,1.957,1.279,2.809,3.333,2.809c1.125,0,1.914-0.387,2.201-0.553l0.128-0.074v-2.531l-0.355,0.147
		C73.076,17.063,72.786,17.121,72.475,17.121 M68.075,12.596v0.391c0,2.294-1.86,4.232-4.061,4.232c-1.008,0-2.21-0.251-2.21-1.445
		c0-1.13,0.774-1.627,3.449-2.216C66.698,13.246,67.546,12.964,68.075,12.596"/>
	<path fill="#E8B049" d="M93.09,0l-3.303,1.986v3.417h-3.182v2.98h3.158v6.699c0,3.339,1.414,4.896,4.449,4.896
		c1.004,0,1.814-0.176,2.629-0.568l0.145-0.07v-2.967l-0.357,0.151c-0.6,0.254-1.01,0.375-1.725,0.375
		c-1.289,0-1.814-0.626-1.814-2.161V8.383h3.896v-2.98H93.09V0L93.09,0z"/>
	<path fill="#E8B049" d="M122.641,5.131c-4.252,0-7.338,3.159-7.338,7.51c0,4.525,2.85,7.337,7.436,7.337
		c2.85,0,4.998-1.154,6.387-3.43l0.141-0.228l-2.949-1.635l-0.127,0.221c-0.822,1.447-1.869,2.065-3.5,2.065
		c-2.244,0-3.631-1.181-3.93-3.334h10.748v-1.293C129.508,7.962,126.813,5.131,122.641,5.131 M118.803,11.249
		c0.41-2.026,1.754-3.137,3.813-3.137c2.527,0,3.27,1.646,3.422,3.137H118.803L118.803,11.249z"/>
	<path fill="#E8B049" d="M149.107,11.276c-2.379-0.351-3.727-0.598-3.727-1.596c0-0.982,0.91-1.568,2.432-1.568
		c1.803,0,3.07,0.666,4.107,2.159l0.16,0.233l2.705-2.297l-0.164-0.196c-1.697-2.026-3.742-2.929-6.637-2.929
		c-3.428,0-5.732,1.838-5.732,4.573c0,2.855,2.305,3.601,4.557,3.954c0.316,0.053,0.627,0.101,0.928,0.147
		c2.184,0.335,3.52,0.59,3.52,1.574c0,0.806-0.658,1.667-2.506,1.667c-1.889,0-3.24-0.676-4.383-2.192l-0.174-0.229l-2.551,2.406
		l0.148,0.186c1.49,1.869,3.871,2.859,6.885,2.859c3.445,0,5.758-1.888,5.758-4.697C154.434,12.312,151.686,11.655,149.107,11.276"
		/>
	<path fill="#E8B049" d="M107.951,5.131c-2.059,0-3.646,0.915-4.65,2.662l-0.08,0.111l-0.002-0.017l-0.014,0.004
		c-0.012-0.073-0.027-0.144-0.027-0.144c-0.078-0.376-0.328-0.849-0.564-1.15c-0.346-0.442-0.91-0.823-1.377-1.006
		c-0.561-0.22-1.516-0.281-2.082,0.004c-0.219,0.11-0.43,0.23-0.629,0.358l-0.057,0.037c0.838,0.913,1.307,1.825,1.338,3.351v3.304
		l-0.006,0.007v7.08h3.5l0,0h0.035V12.41l-0.012-0.387c0.182-2.445,1.4-3.887,3.346-3.887c2.096,0,3.072,1.165,3.072,3.666v7.929
		h3.523v-8.693C113.266,7.394,111.23,5.131,107.951,5.131"/>
	<path fill="#E8B049" d="M84.959,5.78c-0.691-0.387-1.516-0.576-2.52-0.576c-1.674,0-2.832,0.731-3.566,2.277L78.84,7.487
		c-0.086-0.327-0.236-0.623-0.445-0.89c-0.346-0.441-0.91-0.823-1.377-1.006c-0.56-0.22-1.516-0.281-2.081,0.004
		c-0.219,0.11-0.431,0.23-0.63,0.358l-0.057,0.037c0.693,0.755,1.016,1.417,1.126,2.484V19.73h3.498v-7.262
		c0-2.558,1.039-4.085,2.777-4.085c0.881,0,1.582,0.184,2.207,0.578l0.283,0.179l1-3.258L84.959,5.78L84.959,5.78z"/>
	<path fill="#E8B049" d="M141.461,5.78c-0.691-0.387-1.516-0.576-2.518-0.576c-1.67,0-2.826,0.727-3.559,2.263l0.002,0.014
		l-0.043,0.006c-0.088-0.327-0.236-0.623-0.447-0.891c-0.346-0.441-0.91-0.823-1.377-1.006c-0.561-0.22-1.516-0.281-2.082,0.004
		c-0.219,0.11-0.43,0.23-0.629,0.358l-0.057,0.037c0.693,0.755,1.016,1.417,1.125,2.484V19.73h3.5v-7.262
		c0-2.558,1.037-4.085,2.777-4.085c0.879,0,1.58,0.184,2.205,0.578l0.285,0.179l0.998-3.258L141.461,5.78L141.461,5.78z"/>
	<path fill="#E8B049" d="M50.618,1.209L50.618,1.209h-1.179h-7.387V19.73h3.524v-1.792v-3.684v-2.833V10.47V4.486h3.764h1.026
		c1.817,0.154,3.263,1.604,3.436,3.419c0.036,0.231,0.055,0.464,0.056,0.698c0,2.271-1.606,4.107-3.583,4.107
		c-1.063-0.022-2.055-0.539-2.682-1.397c0.331,0.774,0.985,1.363,1.788,1.613c0.601,0.172,1.228,0.235,1.851,0.188
		c0.471-0.013,0.939-0.073,1.397-0.182c0.732-0.168,1.419-0.495,2.011-0.957c0.49-0.386,0.904-0.86,1.222-1.397
		c0.271-0.474,0.48-0.981,0.622-1.508c0.11-0.393,0.188-0.795,0.231-1.201V7.416C56.715,4.852,55.134,1.264,50.618,1.209"/>
	<path fill="#ffffff" d="M142.74,32.613c1.869,0,3.156-1.176,3.156-3.387v-4.434h-0.57v4.5c0,1.857-1.002,2.805-2.564,2.805
		c-1.629,0-2.607-1.045-2.607-2.861v-4.443h-0.57v4.5C139.584,31.447,140.891,32.613,142.74,32.613L142.74,32.613z M148.064,32.492
		h0.57v-1.959l1.914-1.936l3.168,3.895h0.748l-3.508-4.301l3.365-3.398h-0.781l-4.906,5.059v-5.059h-0.57V32.492L148.064,32.492z"/>
</g>
</svg>
