<svg viewBox="0 0 16 15.4989" x="0" y="0" fill="none" xmlns="http://www.w3.org/2000/svg"><g id="Icon_8" xmlns="http://www.w3.org/2000/svg">
<path fill-rule="evenodd" clip-rule="evenodd" d="M8.687,3.791v6.381h-1.367v-6.381z" fill="currentColor"/>
<path d="M8.004,12.496c0.415,0 0.752,-0.336 0.752,-0.752c0,-0.415 -0.337,-0.752 -0.752,-0.752c-0.416,0 -0.752,0.337 -0.752,0.752c0,0.416 0.336,0.752 0.752,0.752z" fill="currentColor"/>
<path fill-rule="evenodd" clip-rule="evenodd" d="M6.182,1.102c0.767,-1.469 2.869,-1.469 3.636,0l5.947,11.398c0.712,1.365 -0.278,2.999 -1.818,2.999h-11.894c-1.54,0 -2.53,-1.634 -1.818,-2.999zM8.606,1.734c-0.256,-0.489 -0.956,-0.489 -1.212,0l-5.947,11.398c-0.237,0.455 0.093,1 0.606,1h11.894c0.513,0 0.843,-0.545 0.606,-1z" fill="currentColor"/>
</g></svg>