<svg viewBox="0 0 16 15.4989" x="0" y="0" fill="none" xmlns="http://www.w3.org/2000/svg"><g id="Icon_5" xmlns="http://www.w3.org/2000/svg">
<path fill-rule="evenodd" clip-rule="evenodd" d="M8.69,3.791v6.381h-1.37v-6.381z" fill="currentColor"/>
<path d="M8,12.496c0.42,0 0.76,-0.336 0.76,-0.752c0,-0.415 -0.34,-0.752 -0.76,-0.752c-0.41,0 -0.75,0.337 -0.75,0.752c0,0.416 0.34,0.752 0.75,0.752z" fill="currentColor"/>
<path fill-rule="evenodd" clip-rule="evenodd" d="M6.18,1.102c0.77,-1.469 2.87,-1.469 3.64,0l5.94,11.398c0.72,1.365 -0.27,2.999 -1.81,2.999h-11.9c-1.54,0 -2.53,-1.634 -1.81,-2.999zM8.61,1.734c-0.26,-0.489 -0.96,-0.489 -1.22,0l-5.94,11.398c-0.24,0.455 0.09,1 0.6,1h11.9c0.51,0 0.84,-0.545 0.6,-1z" fill="currentColor"/>
</g></svg>