<svg viewBox="0 0 16 15.4989" x="0" y="0" fill="none" xmlns="http://www.w3.org/2000/svg"><g id="Icon_2" xmlns="http://www.w3.org/2000/svg">
<path fill-rule="evenodd" clip-rule="evenodd" d="M8.6872,3.791v6.381h-1.367v-6.381z" fill="currentColor"/>
<path d="M8.0037,12.496c0.4153,0 0.7521,-0.336 0.7521,-0.752c0,-0.415 -0.3368,-0.752 -0.7521,-0.752c-0.4154,0 -0.7521,0.337 -0.7521,0.752c0,0.416 0.3367,0.752 0.7521,0.752z" fill="currentColor"/>
<path fill-rule="evenodd" clip-rule="evenodd" d="M6.1821,1.102c0.7666,-1.469 2.8692,-1.469 3.6358,0l5.9468,11.398c0.7122,1.365 -0.2782,2.999 -1.8179,2.999h-11.8936c-1.5397,0 -2.5301,-1.634 -1.8179,-2.999zM8.606,1.734c-0.2556,-0.489 -0.9564,-0.489 -1.212,0l-5.9467,11.398c-0.2375,0.455 0.0927,1 0.6059,1h11.8936c0.5132,0 0.8434,-0.545 0.6059,-1z" fill="currentColor"/>
</g></svg>